<svg width="100" height="100" viewBox="0 0 100 100" fill="none" xmlns="http://www.w3.org/2000/svg">
<g clip-path="url(#clip0_245_30)">
<rect x="52.4727" y="31.2322" width="21.8756" height="106.735" transform="rotate(45 52.4727 31.2322)" fill="url(#paint0_linear_245_30)"/>
<g clip-path="url(#clip1_245_30)">
<path d="M90.3143 6.98712C90.609 6.86031 90.9358 6.82533 91.2521 6.88673C91.5684 6.94813 91.8596 7.10308 92.088 7.33146C92.3164 7.55983 92.4713 7.85108 92.5327 8.16738C92.5941 8.48368 92.5591 8.81042 92.4323 9.10518L71.5583 60.8878C71.431 61.2027 71.2075 61.4687 70.9194 61.6482C70.6314 61.8276 70.2934 61.9113 69.9536 61.8874C69.6137 61.8635 69.2892 61.7333 69.0262 61.5151C68.7631 61.297 68.5748 61.002 68.4879 60.6721L63.292 40.8028C62.9995 39.6801 62.4121 38.6541 61.5911 37.8313C60.77 37.0086 59.7452 36.4191 58.6231 36.1242L38.7473 30.9315C38.4174 30.8447 38.1225 30.6564 37.9043 30.3933C37.6861 30.1302 37.5559 29.8057 37.532 29.4658C37.5081 29.126 37.5918 28.7881 37.7713 28.5C37.9507 28.212 38.2167 27.9884 38.5316 27.8611L90.3143 6.98712Z" fill="#7DCFFF" stroke="#7DCFFF" stroke-width="6.45837" stroke-linecap="round" stroke-linejoin="round"/>
</g>
</g>
<defs>
<linearGradient id="paint0_linear_245_30" x1="63.4105" y1="31.2322" x2="63.4105" y2="137.967" gradientUnits="userSpaceOnUse">
<stop stop-color="#7DCFFF"/>
<stop offset="0.817308" stop-color="#1A3A4A" stop-opacity="0"/>
</linearGradient>
<clipPath id="clip0_245_30">
<rect width="100" height="100" fill="white"/>
</clipPath>
<clipPath id="clip1_245_30">
<rect width="78.085" height="77.5005" fill="white" transform="translate(66.5024 -22.2988) rotate(45)"/>
</clipPath>
</defs>
</svg>
